<svg xmlns="http://www.w3.org/2000/svg" viewBox="0 0 120 120" width="120" height="120">
  <circle cx="60" cy="60" r="57" fill="#1da1f2" />
  <path d="M95.2 37.5c-2.4 1.1-4.9 1.8-7.5 2.1 2.7-1.6 4.8-4.2 5.8-7.3-2.6 1.6-5.5 2.8-8.6 3.4-2.5-2.7-6.1-4.4-10-4.4-7.6 0-13.8 6.2-13.8 13.8 0 1.1 0.1 2.2 0.3 3.3-11.5-0.6-21.7-6.1-28.5-14.5-1.2 2.1-1.9 4.5-1.9 7.1 0 4.9 2.5 9.3 6.3 11.9-2.3-0.1-4.5-0.7-6.4-1.7 0 0.1 0 0.2 0 0.4 0 6.8 4.8 12.4 11.2 13.7-1.2 0.3-2.5 0.5-3.8 0.5-0.9 0-1.8 0.1-2.6 0.1-0.7 0-1.5 0-2.2-0.1 1.6 5 6.2 8.6 11.7 8.7-4.3 3.4-9.7 5.5-15.6 5.5-1 0-2 0-3-0.1 5.6 3.6 12.3 5.7 19.5 5.7 23.4 0 36.2-19.4 36.2-36.2 0-0.6 0-1.3 0-1.9 2.5-1.8 4.7-4 6.4-6.6z" fill="#fff" />
</svg>
